ebc67f72ebddd5e6c49b6be49151384f *tests/data/fate/ffmpeg-loopback-decoding.nut
7423378 tests/data/fate/ffmpeg-loopback-decoding.nut
#tb 0: 1/25
#media_type 0: video
#codec_id 0: rawvideo
#dimensions 0: 704x288
#sar 0: 0/1
0,          0,          0,        1,   304128, 0xc607051c
0,          1,          1,        1,   304128, 0x1ee8d1e2
0,          2,          2,        1,   304128, 0xaab4ec7d
0,          3,          3,        1,   304128, 0x3ce308d5
0,          4,          4,        1,   304128, 0xa15a9a17
0,          5,          5,        1,   304128, 0xcdb083af
0,          6,          6,        1,   304128, 0xfef98ea9
0,          7,          7,        1,   304128, 0x12ec2b4d
0,          8,          8,        1,   304128, 0x41aace1d
0,          9,          9,        1,   304128, 0x98a875d3
0,         10,         10,        1,   304128, 0x8d648f33
0,         11,         11,        1,   304128, 0x1023ac91
0,         12,         12,        1,   304128, 0x9b7b574f
0,         13,         13,        1,   304128, 0xbb56e50e
0,         14,         14,        1,   304128, 0x0c8d2021
0,         15,         15,        1,   304128, 0xf19aa869
0,         16,         16,        1,   304128, 0x04d00b97
0,         17,         17,        1,   304128, 0xb275b059
0,         18,         18,        1,   304128, 0x11ab611f
0,         19,         19,        1,   304128, 0xa71b4d44
0,         20,         20,        1,   304128, 0x2aae5092
0,         21,         21,        1,   304128, 0x8d656199
0,         22,         22,        1,   304128, 0x7f504936
0,         23,         23,        1,   304128, 0x3c6294e8
0,         24,         24,        1,   304128, 0x0822f06f
0,         25,         25,        1,   304128, 0x68ff6294
0,         26,         26,        1,   304128, 0xa37fa566
0,         27,         27,        1,   304128, 0x7d5cd2b5
0,         28,         28,        1,   304128, 0x3719c651
0,         29,         29,        1,   304128, 0x14d00959
0,         30,         30,        1,   304128, 0x0b8736f8
0,         31,         31,        1,   304128, 0xa3c2a53b
0,         32,         32,        1,   304128, 0xaa57fd46
0,         33,         33,        1,   304128, 0x0e580e54
0,         34,         34,        1,   304128, 0xdbebb583
0,         35,         35,        1,   304128, 0x04fd5821
0,         36,         36,        1,   304128, 0xb64f6ac8
0,         37,         37,        1,   304128, 0x82c6f4fb
0,         38,         38,        1,   304128, 0x68c3a220
0,         39,         39,        1,   304128, 0x6cd45247
0,         40,         40,        1,   304128, 0x889c4ea5
0,         41,         41,        1,   304128, 0x3b331c7a
0,         42,         42,        1,   304128, 0x922e42ab
0,         43,         43,        1,   304128, 0xa44ada81
0,         44,         44,        1,   304128, 0x401823a9
0,         45,         45,        1,   304128, 0x21580e48
0,         46,         46,        1,   304128, 0xbd42f34a
0,         47,         47,        1,   304128, 0x47eabc1b
0,         48,         48,        1,   304128, 0x3f446482
0,         49,         49,        1,   304128, 0x0f847ee1
